<svg width="66" height="52" viewBox="0 0 66 52" fill="none" xmlns="http://www.w3.org/2000/svg">
<path d="M57 0.5H9C6.61305 0.5 4.32387 1.44821 2.63604 3.13604C0.948211 4.82387 0 7.11305 0 9.5V48.5C0 49.2957 0.31607 50.0587 0.87868 50.6213C1.44129 51.1839 2.20435 51.5 3 51.5H15C15.4941 51.4974 15.98 51.3729 16.4144 51.1374C16.8487 50.9018 17.2182 50.5627 17.49 50.15L22.62 42.5H43.38L48.51 50.15C48.7818 50.5627 49.1513 50.9018 49.5856 51.1374C50.02 51.3729 50.5059 51.4974 51 51.5H63C63.7957 51.5 64.5587 51.1839 65.1213 50.6213C65.6839 50.0587 66 49.2957 66 48.5V9.5C66 7.11305 65.0518 4.82387 63.364 3.13604C61.6761 1.44821 59.3869 0.5 57 0.5ZM60 45.5H52.62L47.49 38C47.2361 37.5594 46.8744 37.1907 46.4388 36.9283C46.0033 36.6659 45.5081 36.5185 45 36.5H21C20.5059 36.5026 20.02 36.6271 19.5856 36.8626C19.1513 37.0982 18.7818 37.4373 18.51 37.85L13.38 45.5H6V30.5H60V45.5ZM18 24.5V21.5C18 20.7044 18.3161 19.9413 18.8787 19.3787C19.4413 18.8161 20.2044 18.5 21 18.5H27C27.7956 18.5 28.5587 18.8161 29.1213 19.3787C29.6839 19.9413 30 20.7044 30 21.5V24.5H18ZM36 24.5V21.5C36 20.7044 36.3161 19.9413 36.8787 19.3787C37.4413 18.8161 38.2043 18.5 39 18.5H45C45.7957 18.5 46.5587 18.8161 47.1213 19.3787C47.6839 19.9413 48 20.7044 48 21.5V24.5H36ZM60 24.5H54V21.5C54 19.1131 53.0518 16.8239 51.364 15.136C49.6761 13.4482 47.3869 12.5 45 12.5H39C36.7798 12.5132 34.6429 13.3466 33 14.84C31.3571 13.3466 29.2202 12.5132 27 12.5H21C18.6131 12.5 16.3239 13.4482 14.636 15.136C12.9482 16.8239 12 19.1131 12 21.5V24.5H6V9.5C6 8.70435 6.31607 7.94129 6.87868 7.37868C7.44129 6.81607 8.20435 6.5 9 6.5H57C57.7957 6.5 58.5587 6.81607 59.1213 7.37868C59.6839 7.94129 60 8.70435 60 9.5V24.5Z" fill="black"/>
</svg>
