<svg width="72" height="72" viewBox="0 0 72 72" fill="none" xmlns="http://www.w3.org/2000/svg">
<path d="M62.52 13.8301C60.9877 12.2971 59.1684 11.081 57.1661 10.2514C55.1637 9.42167 53.0175 8.99463 50.85 8.99463C48.6825 8.99463 46.5363 9.42167 44.5339 10.2514C42.5315 11.081 40.7123 12.2971 39.18 13.8301L36 17.0101L32.82 13.8301C29.7249 10.735 25.5271 8.99623 21.15 8.99623C16.7729 8.99623 12.5751 10.735 9.47999 13.8301C6.38491 16.9252 4.64612 21.123 4.64612 25.5001C4.64612 29.8772 6.38491 34.075 9.47999 37.1701L12.66 40.3501L36 63.6901L59.34 40.3501L62.52 37.1701C64.053 35.6378 65.269 33.8185 66.0987 31.8162C66.9284 29.8138 67.3555 27.6676 67.3555 25.5001C67.3555 23.3326 66.9284 21.1864 66.0987 19.184C65.269 17.1817 64.053 15.3624 62.52 13.8301V13.8301Z" stroke="black" stroke-width="7" stroke-linecap="round" stroke-linejoin="round"/>
</svg>
