<svg width="62" height="61" viewBox="0 0 62 61" fill="none" xmlns="http://www.w3.org/2000/svg">
<path d="M5.85985 45.84C6.15424 46.58 6.73052 47.1727 7.46191 47.4877C8.1933 47.8028 9.01989 47.8144 9.75985 47.52C10.4998 47.2256 11.0925 46.6493 11.4076 45.9179C11.7226 45.1866 11.7342 44.36 11.4398 43.62L8.07985 35.16L27.9999 30.75V45C27.9999 45.7957 28.3159 46.5587 28.8785 47.1213C29.4411 47.6839 30.2042 48 30.9999 48C31.7955 48 32.5586 47.6839 33.1212 47.1213C33.6838 46.5587 33.9999 45.7957 33.9999 45V30.75L53.9198 35.16L50.5598 43.62C50.4137 43.9864 50.3413 44.3779 50.3466 44.7723C50.352 45.1667 50.4351 45.5561 50.5911 45.9184C50.7471 46.2806 50.9731 46.6085 51.256 46.8834C51.5389 47.1582 51.8732 47.3745 52.2398 47.52C52.5932 47.6597 52.9699 47.7309 53.3498 47.73C53.9507 47.7306 54.5379 47.5507 55.0353 47.2138C55.5327 46.8768 55.9175 46.3982 56.1398 45.84L60.7898 34.11C60.9495 33.7043 61.0187 33.2687 60.9928 32.8335C60.9669 32.3982 60.8465 31.9739 60.6398 31.59C60.4394 31.2075 60.1587 30.8728 59.817 30.6087C59.4753 30.3447 59.0806 30.1575 58.6598 30.06L48.9998 27.93V15C48.9998 14.2044 48.6838 13.4413 48.1212 12.8787C47.5586 12.3161 46.7955 12 45.9999 12H39.9999V3C39.9999 2.20435 39.6838 1.44129 39.1212 0.87868C38.5586 0.31607 37.7955 0 36.9999 0H24.9999C24.2042 0 23.4411 0.31607 22.8785 0.87868C22.3159 1.44129 21.9998 2.20435 21.9998 3V12H15.9998C15.2042 12 14.4411 12.3161 13.8785 12.8787C13.3159 13.4413 12.9998 14.2044 12.9998 15V27.93L3.33985 30C2.91914 30.0975 2.52444 30.2847 2.18272 30.5487C1.84099 30.8128 1.56031 31.1475 1.35985 31.53C1.15324 31.9139 1.03279 32.3382 1.00688 32.7735C0.980975 33.2087 1.05024 33.6443 1.20985 34.05L5.85985 45.84ZM27.9999 6H33.9999V12H27.9999V6ZM18.9998 18H42.9999V26.58L31.6599 24H31.3598H30.9999H30.6399H30.3398L18.9998 26.58V18ZM57.1298 51.84C56.0772 52.1625 55.0693 52.6161 54.1298 53.19C53.1741 53.7489 52.087 54.0434 50.9798 54.0434C49.8727 54.0434 48.7855 53.7489 47.8299 53.19C45.7516 52.0176 43.4059 51.4016 41.0199 51.4016C38.6338 51.4016 36.2881 52.0176 34.2099 53.19C33.2411 53.7424 32.1451 54.0329 31.0299 54.0329C29.9146 54.0329 28.8186 53.7424 27.8498 53.19C25.7698 52.0232 23.4248 51.4104 21.0399 51.4104C18.6549 51.4104 16.3099 52.0232 14.2298 53.19C13.2741 53.7489 12.187 54.0434 11.0798 54.0434C9.97273 54.0434 8.88555 53.7489 7.92985 53.19C6.99035 52.6161 5.98245 52.1625 4.92985 51.84C4.53068 51.6981 4.10597 51.6423 3.68369 51.6764C3.26141 51.7104 2.85113 51.8335 2.47985 52.0376C2.10858 52.2416 1.78474 52.522 1.52965 52.8603C1.27455 53.1985 1.09399 53.5869 0.999849 54C0.775886 54.7598 0.861527 55.5774 1.23809 56.2743C1.61465 56.9712 2.25156 57.4909 3.00985 57.72C3.61394 57.8837 4.19027 58.1364 4.71985 58.47C6.53997 59.538 8.60956 60.1072 10.7198 60.12C12.9116 60.1204 15.0645 59.5408 16.9599 58.44C18.1358 57.7913 19.4569 57.4511 20.7999 57.4511C22.1428 57.4511 23.4639 57.7913 24.6398 58.44C26.5218 59.5161 28.652 60.0821 30.8198 60.0821C32.9877 60.0821 35.118 59.5161 36.9999 58.44C38.1758 57.7913 39.4969 57.4511 40.8399 57.4511C42.1828 57.4511 43.5039 57.7913 44.6798 58.44C46.5393 59.5498 48.6644 60.1358 50.8298 60.1358C52.9953 60.1358 55.1204 59.5498 56.9798 58.44C57.5094 58.1064 58.0858 57.8537 58.6898 57.69C59.0891 57.6092 59.4677 57.448 59.8026 57.2162C60.1375 56.9843 60.4217 56.6867 60.6378 56.3414C60.854 55.9962 60.9975 55.6105 61.0598 55.208C61.122 54.8054 61.1016 54.3944 60.9998 54C60.9045 53.594 60.7256 53.2123 60.4744 52.8794C60.2233 52.5464 59.9055 52.2695 59.5414 52.0662C59.1772 51.863 58.7747 51.7379 58.3595 51.6989C57.9442 51.66 57.5255 51.708 57.1298 51.84Z" fill="black"/>
</svg>
