<svg width="60" height="61" viewBox="0 0 60 61" fill="none" xmlns="http://www.w3.org/2000/svg">
<path d="M37.8953 17.5302C38.2401 17.6158 38.6043 17.512 38.8522 17.2577L52.7813 2.96722C53.251 2.48576 55.5618 0.091557 58.1026 2.56827C60.6433 5.04483 58.3204 7.4269 57.8509 7.90857L43.9296 22.1909C43.6775 22.4496 43.5845 22.8242 43.6863 23.1708L52.8575 54.3921C52.9593 54.7387 52.8663 55.1133 52.6141 55.3719L47.9818 60.1244C47.5077 60.6108 46.6969 60.4931 46.3807 59.8919L33.7824 35.9447C33.4661 35.3435 32.6554 35.2259 32.1813 35.7123L23.3053 44.8184C23.1233 45.0052 23.0214 45.2556 23.0214 45.5164V54.1463C23.0214 54.4402 22.8921 54.7192 22.6679 54.9092L20.0166 57.1556C19.5508 57.5503 18.8431 57.4391 18.5208 56.9206L13.9372 49.5464C13.8525 49.4101 13.7361 49.2962 13.5981 49.2143L5.93016 44.6659C5.41425 44.3599 5.28196 43.6717 5.64765 43.1962L7.72843 40.4907C7.91364 40.2499 8.19826 40.1063 8.50199 40.1005L17.2914 39.9324C17.5544 39.9274 17.8048 39.819 17.9884 39.6306L26.8675 30.5212C27.3399 30.0365 27.2045 29.2323 26.5994 28.9291L1.90652 16.5564C1.30141 16.2532 1.16598 15.449 1.6384 14.9643L6.28441 10.1978C6.53233 9.94344 6.89657 9.83969 7.2413 9.92522L37.8953 17.5302Z" fill="#BCFD49" stroke="#BCFD49"/>
</svg>
