<svg width="28" height="28" viewBox="0 0 28 28" fill="none" xmlns="http://www.w3.org/2000/svg">
<path d="M21.1198 5.28008C20.8034 5.28008 20.494 5.37392 20.2309 5.54973C19.9678 5.72554 19.7627 5.97543 19.6416 6.26779C19.5205 6.56015 19.4888 6.88186 19.5506 7.19223C19.6123 7.5026 19.7647 7.78769 19.9885 8.01145C20.2122 8.23522 20.4973 8.3876 20.8077 8.44934C21.1181 8.51107 21.4398 8.47939 21.7321 8.35829C22.0245 8.23719 22.2744 8.03211 22.4502 7.76899C22.626 7.50588 22.7198 7.19653 22.7198 6.88008C22.7198 6.45573 22.5513 6.04877 22.2512 5.74871C21.9512 5.44865 21.5442 5.28008 21.1198 5.28008V5.28008ZM27.2532 8.50675C27.2272 7.40048 27.02 6.30595 26.6398 5.26675C26.3008 4.37759 25.7732 3.57245 25.0932 2.90675C24.4329 2.22332 23.6259 1.69898 22.7332 1.37341C21.6967 0.981629 20.601 0.769695 19.4932 0.746748C18.0798 0.666748 17.6265 0.666748 13.9998 0.666748C10.3732 0.666748 9.91984 0.666748 8.5065 0.746748C7.39871 0.769695 6.30296 0.981629 5.2665 1.37341C4.37541 1.70228 3.56908 2.22616 2.9065 2.90675C2.22307 3.56699 1.69874 4.374 1.37317 5.26675C0.981385 6.30321 0.769451 7.39895 0.746504 8.50675C0.666504 9.92008 0.666504 10.3734 0.666504 14.0001C0.666504 17.6267 0.666504 18.0801 0.746504 19.4934C0.769451 20.6012 0.981385 21.697 1.37317 22.7334C1.69874 23.6262 2.22307 24.4332 2.9065 25.0934C3.56908 25.774 4.37541 26.2979 5.2665 26.6267C6.30296 27.0185 7.39871 27.2305 8.5065 27.2534C9.91984 27.3334 10.3732 27.3334 13.9998 27.3334C17.6265 27.3334 18.0798 27.3334 19.4932 27.2534C20.601 27.2305 21.6967 27.0185 22.7332 26.6267C23.6259 26.3012 24.4329 25.7768 25.0932 25.0934C25.7762 24.4302 26.3043 23.6243 26.6398 22.7334C27.02 21.6942 27.2272 20.5997 27.2532 19.4934C27.2532 18.0801 27.3332 17.6267 27.3332 14.0001C27.3332 10.3734 27.3332 9.92008 27.2532 8.50675V8.50675ZM24.8532 19.3334C24.8435 20.1798 24.6902 21.0184 24.3998 21.8134C24.1869 22.3937 23.845 22.918 23.3998 23.3467C22.9674 23.7874 22.4441 24.1287 21.8665 24.3467C21.0714 24.6371 20.2329 24.7904 19.3865 24.8001C18.0532 24.8667 17.5598 24.8801 14.0532 24.8801C10.5465 24.8801 10.0532 24.8801 8.71984 24.8001C7.84103 24.8165 6.96596 24.6812 6.13317 24.4001C5.58088 24.1709 5.08165 23.8305 4.6665 23.4001C4.22396 22.9717 3.8863 22.447 3.67984 21.8667C3.35431 21.0603 3.17376 20.2027 3.1465 19.3334C3.1465 18.0001 3.0665 17.5067 3.0665 14.0001C3.0665 10.4934 3.0665 10.0001 3.1465 8.66675C3.15248 7.80149 3.31044 6.94401 3.61317 6.13341C3.8479 5.57063 4.20819 5.06896 4.6665 4.66675C5.07159 4.20831 5.57222 3.84421 6.13317 3.60008C6.94591 3.30681 7.8025 3.15352 8.6665 3.14675C9.99984 3.14675 10.4932 3.06675 13.9998 3.06675C17.5065 3.06675 17.9998 3.06675 19.3332 3.14675C20.1795 3.15646 21.0181 3.30974 21.8132 3.60008C22.4191 3.82495 22.9629 4.19054 23.3998 4.66675C23.8368 5.07632 24.1782 5.57706 24.3998 6.13341C24.6962 6.94533 24.8496 7.80245 24.8532 8.66675C24.9198 10.0001 24.9332 10.4934 24.9332 14.0001C24.9332 17.5067 24.9198 18.0001 24.8532 19.3334ZM13.9998 7.16008C12.6476 7.16272 11.3265 7.56612 10.2034 8.31931C9.0803 9.0725 8.20568 10.1417 7.69002 11.3918C7.17436 12.6418 7.0408 14.0167 7.30623 15.3427C7.57166 16.6686 8.22415 17.8861 9.18127 18.8414C10.1384 19.7966 11.3572 20.4468 12.6837 20.7096C14.0101 20.9725 15.3847 20.8362 16.6338 20.3181C17.8829 19.8 18.9503 18.9233 19.7013 17.7988C20.4523 16.6743 20.8532 15.3523 20.8532 14.0001C20.8549 13.1002 20.6788 12.2089 20.3348 11.3774C19.9909 10.5458 19.4859 9.79049 18.849 9.15482C18.2121 8.51914 17.4558 8.01565 16.6236 7.67332C15.7914 7.33099 14.8997 7.15656 13.9998 7.16008V7.16008ZM13.9998 18.4401C13.1217 18.4401 12.2633 18.1797 11.5331 17.6918C10.803 17.2039 10.2339 16.5105 9.89781 15.6992C9.56176 14.8879 9.47383 13.9952 9.64515 13.1339C9.81647 12.2726 10.2393 11.4815 10.8603 10.8605C11.4812 10.2396 12.2724 9.81671 13.1336 9.64539C13.9949 9.47408 14.8876 9.562 15.699 9.89806C16.5103 10.2341 17.2037 10.8032 17.6916 11.5333C18.1794 12.2635 18.4398 13.1219 18.4398 14.0001C18.4398 14.5832 18.325 15.1605 18.1019 15.6992C17.8787 16.2379 17.5517 16.7273 17.1394 17.1396C16.7271 17.5519 16.2376 17.879 15.699 18.1021C15.1603 18.3252 14.5829 18.4401 13.9998 18.4401V18.4401Z" fill="white"/>
</svg>
