<svg width="48" height="60" viewBox="0 0 48 60" fill="none" xmlns="http://www.w3.org/2000/svg">
<path d="M25.3537 58.4773L25.3261 58.4977L25.3 58.5201C24.9377 58.8299 24.4767 59.0002 24 59.0002C23.5244 59.0002 23.0644 58.8307 22.7025 58.5222C22.7017 58.5215 22.7008 58.5208 22.7 58.5201L22.6999 58.52C22.2305 58.1132 16.7908 53.3991 11.466 46.7948C6.08126 40.1163 1 31.7283 1 24C1 17.9 3.42321 12.0499 7.73654 7.73655C12.0499 3.42321 17.9 1 24 1C30.1 1 35.9501 3.42321 40.2635 7.73655C44.5768 12.0499 47 17.9 47 24C47 31.7303 41.9538 40.1194 36.5892 46.7962C31.2526 53.4381 25.8001 58.1457 25.3537 58.4773ZM23.3155 53.679L23.9983 54.3201L24.6827 53.6807C27.9119 50.6638 32.4617 45.8803 36.213 40.5708C39.9352 35.3023 43 29.3387 43 24C43 18.9609 40.9982 14.1282 37.435 10.565C33.8718 7.00178 29.0391 5 24 5C18.9609 5 14.1282 7.00178 10.565 10.565C7.00178 14.1282 5 18.9609 5 24C5 29.339 8.06508 35.2953 11.7872 40.5598C15.5384 45.8654 20.0879 50.6484 23.3155 53.679ZM17.8887 14.8538C19.6977 13.6451 21.8244 13 24 13C26.9174 13 29.7153 14.1589 31.7782 16.2218C33.8411 18.2847 35 21.0826 35 24C35 26.1756 34.3549 28.3023 33.1462 30.1113C31.9375 31.9202 30.2195 33.3301 28.2095 34.1627C26.1995 34.9952 23.9878 35.2131 21.854 34.7886C19.7202 34.3642 17.7602 33.3166 16.2218 31.7782C14.6834 30.2398 13.6358 28.2798 13.2114 26.146C12.7869 24.0122 13.0048 21.8005 13.8373 19.7905C14.6699 17.7805 16.0798 16.0625 17.8887 14.8538ZM20.111 29.8203C21.2622 30.5895 22.6155 31 24 31C25.8565 31 27.637 30.2625 28.9497 28.9497C30.2625 27.637 31 25.8565 31 24C31 22.6155 30.5895 21.2622 29.8203 20.111C29.0511 18.9599 27.9579 18.0627 26.6788 17.5328C25.3997 17.003 23.9922 16.8644 22.6344 17.1345C21.2765 17.4046 20.0292 18.0713 19.0503 19.0503C18.0713 20.0292 17.4046 21.2765 17.1345 22.6344C16.8644 23.9922 17.003 25.3997 17.5328 26.6788C18.0627 27.9579 18.9599 29.0511 20.111 29.8203Z" fill="black" stroke="black" stroke-width="2"/>
</svg>
