<svg width="24" height="24" viewBox="0 0 24 24" fill="none" xmlns="http://www.w3.org/2000/svg">
<path d="M20.9419 9.67501L14.9911 8.81017L12.3309 3.4172C12.2583 3.26954 12.1387 3.15001 11.9911 3.07735C11.6208 2.89454 11.1708 3.04688 10.9856 3.4172L8.32545 8.81017L2.37467 9.67501C2.21061 9.69845 2.06061 9.77579 1.94576 9.89298C1.80692 10.0357 1.73042 10.2277 1.73305 10.4267C1.73569 10.6258 1.81725 10.8157 1.95982 10.9547L6.26529 15.1524L5.24811 21.0797C5.22425 21.2176 5.23951 21.3594 5.29215 21.489C5.34479 21.6187 5.4327 21.731 5.54592 21.8132C5.65914 21.8955 5.79314 21.9443 5.93271 21.9543C6.07229 21.9642 6.21186 21.9349 6.33561 21.8695L11.6583 19.0711L16.9809 21.8695C17.1262 21.9469 17.295 21.9727 17.4567 21.9445C17.8645 21.8742 18.1387 21.4875 18.0684 21.0797L17.0512 15.1524L21.3567 10.9547C21.4739 10.8399 21.5512 10.6899 21.5747 10.5258C21.6379 10.1156 21.352 9.73595 20.9419 9.67501Z" fill="#7483BD"/>
</svg>
