<svg width="18" height="19" viewBox="0 0 18 19" fill="none" xmlns="http://www.w3.org/2000/svg">
<path d="M12.77 3.5888C12.9996 3.71064 13.2715 3.74267 13.5263 3.67788C13.7811 3.6131 13.9981 3.45677 14.13 3.243C14.2392 3.06296 14.4092 2.92187 14.6134 2.84186C14.8176 2.76185 15.0444 2.74744 15.2583 2.8009C15.4723 2.85435 15.6611 2.97264 15.7954 3.13722C15.9296 3.3018 16.0016 3.50336 16 3.71029C16 3.95816 15.8947 4.19587 15.7071 4.37114C15.5196 4.54641 15.2652 4.64487 15 4.64487C14.7348 4.64487 14.4804 4.74334 14.2929 4.9186C14.1054 5.09387 14 5.33159 14 5.57945C14 5.82732 14.1054 6.06503 14.2929 6.2403C14.4804 6.41557 14.7348 6.51403 15 6.51403C15.5265 6.51372 16.0437 6.3839 16.4995 6.13762C16.9554 5.89133 17.3338 5.53727 17.5969 5.11099C17.8599 4.68472 17.9983 4.20125 17.9981 3.70917C17.9979 3.21709 17.8591 2.73372 17.5957 2.30765C17.3323 1.88157 16.9535 1.52779 16.4975 1.28185C16.0414 1.03591 15.5241 0.906476 14.9976 0.906555C14.4711 0.906634 13.9539 1.03622 13.4979 1.2823C13.0419 1.52837 12.6633 1.88227 12.4 2.30842C12.3339 2.41509 12.291 2.53293 12.2738 2.65515C12.2566 2.77737 12.2655 2.90157 12.2999 3.02058C12.3343 3.13959 12.3935 3.25106 12.4742 3.34858C12.5549 3.4461 12.6554 3.52774 12.77 3.5888ZM17.07 10.2523C16.8075 10.2205 16.5422 10.2872 16.3323 10.4379C16.1223 10.5886 15.9849 10.8109 15.95 11.0561C15.7402 12.6403 14.9177 14.0982 13.6376 15.1552C12.3575 16.2121 10.7081 16.7951 9.00002 16.7944H3.41002L4.06002 16.1869C4.24627 16.0118 4.35081 15.775 4.35081 15.528C4.35081 15.2811 4.24627 15.0443 4.06002 14.8692C3.08497 13.9543 2.4214 12.7903 2.15291 11.5236C1.88442 10.257 2.02301 8.94442 2.55122 7.75126C3.07943 6.55809 3.97364 5.53769 5.12121 4.8186C6.26878 4.09951 7.61838 3.71388 9.00002 3.71029C9.26523 3.71029 9.51959 3.61183 9.70712 3.43656C9.89466 3.26129 10 3.02358 10 2.77571C10 2.52785 9.89466 2.29013 9.70712 2.11487C9.51959 1.9396 9.26523 1.84113 9.00002 1.84113C7.30925 1.84773 5.65466 2.2993 4.22581 3.14412C2.79697 3.98894 1.65165 5.19284 0.921082 6.61788C0.190513 8.04293 -0.0957586 9.63149 0.095063 11.2016C0.285885 12.7716 0.946081 14.2597 2.00002 15.4953L0.290017 17.0654C0.15126 17.1969 0.0572635 17.3637 0.0198894 17.545C-0.0174847 17.7263 0.00343795 17.9139 0.0800174 18.0841C0.155037 18.2548 0.282435 18.4009 0.446156 18.504C0.609876 18.6071 0.802592 18.6626 1.00002 18.6636H9.00002C11.1915 18.6638 13.3077 17.9168 14.9518 16.5627C16.5959 15.2085 17.6549 13.3403 17.93 11.3084C17.9483 11.1862 17.9405 11.0619 17.9071 10.9425C17.8737 10.8231 17.8154 10.7111 17.7354 10.613C17.6555 10.5148 17.5555 10.4324 17.4413 10.3705C17.3271 10.3086 17.2009 10.2684 17.07 10.2523V10.2523ZM15.38 7.51403C15.198 7.43875 14.996 7.41598 14.8 7.44861L14.62 7.50469L14.44 7.5888L14.29 7.71029C14.2001 7.79641 14.1288 7.89796 14.08 8.00936C14.0209 8.12593 13.9934 8.25433 14 8.38319C13.9971 8.50783 14.0209 8.63176 14.07 8.74768C14.1217 8.85984 14.1965 8.96145 14.29 9.04674C14.3835 9.13336 14.4943 9.20189 14.6161 9.2484C14.7379 9.29491 14.8684 9.31848 15 9.31777C15.2652 9.31777 15.5196 9.2193 15.7071 9.04404C15.8947 8.86877 16 8.63106 16 8.38319C16.0034 8.2606 15.976 8.13897 15.92 8.02805C15.8126 7.80348 15.6203 7.6238 15.38 7.52338V7.51403Z" fill="black"/>
</svg>
