<svg width="30" height="26" viewBox="0 0 30 26" fill="none" xmlns="http://www.w3.org/2000/svg">
<path d="M29.6549 2.26702C29.655 2.03151 29.5928 1.80017 29.4744 1.59655C29.3561 1.39293 29.1859 1.22431 28.9812 1.10786C28.7765 0.991417 28.5446 0.931302 28.3091 0.933642C28.0736 0.935981 27.8429 1.00069 27.6406 1.12118C26.8602 1.5857 26.0199 1.94143 25.1432 2.17852C23.8912 1.10416 22.2944 0.516254 20.6446 0.522262C18.8347 0.524346 17.0964 1.22972 15.7969 2.48944C14.4973 3.74915 13.7382 5.46461 13.6797 7.27357C10.1117 6.70458 6.87791 4.84227 4.595 2.04176C4.45745 1.87487 4.28178 1.74351 4.08281 1.65875C3.88385 1.57399 3.66741 1.53833 3.45177 1.55476C3.23625 1.5725 3.0283 1.64248 2.84589 1.75864C2.66349 1.87479 2.51213 2.03363 2.40489 2.22142C1.85493 3.18117 1.53907 4.2571 1.48296 5.36183C1.42685 6.46656 1.63208 7.56896 2.08197 8.57949L2.07937 8.58209C1.87717 8.70663 1.71029 8.88096 1.59471 9.08842C1.47913 9.29588 1.4187 9.52952 1.41921 9.767C1.41676 9.9629 1.42851 10.1587 1.45437 10.3529C1.59055 12.0306 2.33408 13.601 3.54552 14.7696C3.46334 14.9262 3.41318 15.0975 3.39798 15.2737C3.38277 15.4499 3.40283 15.6273 3.45697 15.7956C3.98512 17.4412 5.1083 18.8304 6.60672 19.6915C5.08437 20.2801 3.44061 20.4854 1.82025 20.2891C1.52035 20.2515 1.21656 20.3169 0.958716 20.4746C0.700874 20.6323 0.504288 20.873 0.401205 21.1571C0.298123 21.4413 0.294666 21.752 0.3914 22.0384C0.488134 22.3247 0.679316 22.5697 0.933585 22.7331C3.72038 24.528 6.96515 25.4823 10.2799 25.4819C14.039 25.5241 17.7066 24.3229 20.7123 22.0651C23.718 19.8073 25.8932 16.6194 26.8997 12.9974C27.3704 11.4196 27.6108 9.78205 27.6133 8.1355C27.6133 8.04826 27.6133 7.95842 27.6119 7.86858C28.3081 7.11782 28.8474 6.23565 29.1982 5.27378C29.549 4.3119 29.7043 3.28968 29.6549 2.26702V2.26702ZM25.246 6.54957C25.0258 6.81003 24.9144 7.1453 24.9348 7.48577C24.9479 7.70577 24.9466 7.9271 24.9466 8.1355C24.9438 9.52689 24.7399 10.9106 24.3411 12.2436C23.5191 15.3254 21.6866 18.0423 19.1372 19.959C16.5878 21.8758 13.4689 22.8815 10.2799 22.8152C9.13445 22.8155 7.9929 22.6809 6.87891 22.4142C8.29945 21.9564 9.62769 21.2506 10.8021 20.3295C11.0184 20.1592 11.1767 19.9261 11.2553 19.6623C11.3338 19.3984 11.3289 19.1167 11.241 18.8558C11.1531 18.5949 10.9866 18.3676 10.7645 18.2051C10.5423 18.0426 10.2752 17.9528 9.99995 17.948C8.89172 17.9308 7.83345 17.484 7.04812 16.7019C7.24735 16.6642 7.44527 16.6173 7.64188 16.5613C7.92989 16.4793 8.18194 16.3028 8.35743 16.0601C8.53292 15.8175 8.62164 15.5229 8.60931 15.2237C8.59698 14.9245 8.48432 14.6381 8.28946 14.4107C8.0946 14.1833 7.82889 14.0281 7.53511 13.9701C6.89182 13.8431 6.2865 13.5694 5.76619 13.1704C5.24588 12.7713 4.82461 12.2577 4.53511 11.6694C4.77608 11.7022 5.01859 11.7227 5.26167 11.7306C5.55044 11.7349 5.83312 11.6473 6.06883 11.4804C6.30454 11.3135 6.48106 11.076 6.57287 10.8022C6.66084 10.5259 6.65631 10.2284 6.55997 9.95488C6.46363 9.68137 6.28073 9.44673 6.03901 9.28654C5.45254 8.89584 4.97214 8.36577 4.64082 7.74382C4.3095 7.12186 4.13762 6.42745 4.14057 5.72276C4.14057 5.63422 4.14317 5.54568 4.14839 5.45844C7.13673 8.24544 11.0128 9.88837 15.0937 10.0978C15.2997 10.1059 15.5049 10.0671 15.6937 9.98429C15.8825 9.90151 16.05 9.7769 16.1836 9.61989C16.3158 9.46136 16.4094 9.2743 16.4571 9.07343C16.5048 8.87257 16.5052 8.66338 16.4582 8.46234C16.382 8.14416 16.3431 7.81817 16.3424 7.49098C16.3436 6.35036 16.7972 5.25681 17.6038 4.45027C18.4103 3.64373 19.5039 3.19009 20.6445 3.18889C21.2313 3.18732 21.8121 3.30742 22.3502 3.54162C22.8883 3.77582 23.372 4.11902 23.7708 4.54957C23.9246 4.71501 24.1181 4.83836 24.333 4.90788C24.5479 4.9774 24.7771 4.99079 24.9986 4.94676C25.5463 4.84016 26.0862 4.69661 26.6145 4.51708C26.2541 5.25437 25.7936 5.93834 25.246 6.54957V6.54957Z" fill="white"/>
</svg>
